<?xml version="1.0" encoding="iso-8859-1"?>
<!-- Generator: Adobe Illustrator 19.0.0, SVG Export Plug-In . SVG Version: 6.00 Build 0)  -->
<svg version="1.1" id="Layer_1" xmlns="http://www.w3.org/2000/svg" xmlns:xlink="http://www.w3.org/1999/xlink" x="0px" y="0px"
	 viewBox="0 0 512 512" style="enable-background:new 0 0 512 512;" xml:space="preserve">
<g>
	<g>
		<path d="M491.646,119.951c-0.677-1.171-1.538-2.2-2.244-3.348c-0.598-2.454-1.983-4.487-3.968-5.92
			c-27.978-41.05-75.195-66.953-134.765-72.953c-62.793-6.346-131.677,10.031-194.091,46.068
			c-62.404,36.031-111.042,87.546-136.94,145.049c-26.429,58.674-26.174,116.638,0.716,163.206
			c26.889,46.573,76.958,75.772,140.987,82.221c8.82,0.889,17.773,1.334,26.807,1.334c55.209,0,113.648-16.439,167.273-47.401
			c62.414-36.031,111.042-87.546,136.94-145.05C518.791,224.483,518.535,166.525,491.646,119.951z M38.719,237.442
			c24.119-53.533,69.691-101.665,128.324-135.514C217.501,72.796,272.27,57.327,323.8,57.327c8.35,0,16.618,0.409,24.774,1.226
			c46.795,4.717,84.807,22.871,109.982,51.515c-43.454,5.145-146.646,27.804-238.01,127.471
			C124.661,342.144,50.869,365.075,32.508,369.382C15.479,330.96,17.433,284.724,38.719,237.442z M473.28,274.562
			c-24.109,53.538-69.681,101.665-128.324,135.514c-58.633,33.854-123.112,49.292-181.52,43.374
			c-53.82-5.423-96.07-28.55-120.404-65.097c27.937-7.645,100.638-35.976,192.946-136.669
			c96.57-105.349,209.475-119.885,237.128-121.878c0.123,0.214,0.286,0.397,0.409,0.611
			C496.95,171.001,496.869,222.194,473.28,274.562z"/>
	</g>
</g>
<g>
</g>
<g>
</g>
<g>
</g>
<g>
</g>
<g>
</g>
<g>
</g>
<g>
</g>
<g>
</g>
<g>
</g>
<g>
</g>
<g>
</g>
<g>
</g>
<g>
</g>
<g>
</g>
<g>
</g>
</svg>
